<svg xmlns="http://www.w3.org/2000/svg" width="7.241" height="9.241" viewBox="0 0 7.241 9.241">
  <g id="그룹_22" data-name="그룹 22" transform="translate(-468.383 -157.19)">
    <g id="그룹_18" data-name="그룹 18" transform="translate(455.383 161.19)">
      <rect id="사각형_12" data-name="사각형 12" width="7.241" height="1.06" rx="0.53" transform="translate(13 -4)" fill="#ffb800"/>
      <rect id="사각형_13" data-name="사각형 13" width="4.241" height="1.06" rx="0.53" transform="translate(15.121 -4) rotate(90)" fill="#ffb800"/>
    </g>
    <g id="그룹_19" data-name="그룹 19" transform="translate(458.033 161.19)">
      <circle id="타원_6" data-name="타원 6" cx="2.121" cy="2.121" r="2.121" transform="translate(13 -3)" fill="#00a3ff"/>
      <circle id="타원_7" data-name="타원 7" cx="1.06" cy="1.06" r="1.06" transform="translate(14.06 -1.94)" fill="#fff"/>
    </g>
    <g id="그룹_20" data-name="그룹 20" transform="translate(461.215 162.19)">
      <path id="사각형_14" data-name="사각형 14" d="M.53,0H1.884A2.121,2.121,0,0,1,4,2.121v0A2.121,2.121,0,0,1,1.884,4.241H.53A.53.53,0,0,1,0,3.711V.53A.53.53,0,0,1,.53,0Z" transform="translate(7.286 -1)" fill="#04a3fb"/>
      <path id="사각형_15" data-name="사각형 15" d="M.265,0H.53A1.06,1.06,0,0,1,1.59,1.06v0A1.06,1.06,0,0,1,.53,2.121H.265A.265.265,0,0,1,0,1.855V.265A.265.265,0,0,1,.265,0Z" transform="translate(8.493 0.06)" fill="#fff"/>
    </g>
    <g id="그룹_21" data-name="그룹 21" transform="translate(474.033 162.19)">
      <circle id="타원_8" data-name="타원 8" cx="2.121" cy="2.121" r="2.121" transform="translate(-3)" fill="#ffb831"/>
      <circle id="타원_9" data-name="타원 9" cx="1.06" cy="1.06" r="1.06" transform="translate(-1.94 1.06)" fill="#fff"/>
    </g>
  </g>
</svg>
