<svg xmlns="http://www.w3.org/2000/svg" width="7.241" height="9.242" viewBox="0 0 7.241 9.242">
  <g id="그룹_22" data-name="그룹 22" transform="translate(-468.383 -157.19)">
    <path id="빼기_3" data-name="빼기 3" d="M-14.88,15.241A2.123,2.123,0,0,1-17,13.12,2.123,2.123,0,0,1-14.88,11a2.123,2.123,0,0,1,2.12,2.12A2.123,2.123,0,0,1-14.88,15.241Zm0-3.181a1.061,1.061,0,0,0-1.06,1.06,1.061,1.061,0,0,0,1.06,1.06,1.061,1.061,0,0,0,1.06-1.06A1.061,1.061,0,0,0-14.88,12.06Z" transform="translate(488.383 151.19)" fill="#ffb831"/>
    <path id="합치기_1" data-name="합치기 1" d="M-15.94,14.711V12.06h-.53a.53.53,0,0,1-.53-.53.53.53,0,0,1,.53-.53h6.181a.53.53,0,0,1,.53.53.53.53,0,0,1-.53.53H-14.88v2.651a.53.53,0,0,1-.53.531A.531.531,0,0,1-15.94,14.711Z" transform="translate(485.383 146.19)" fill="#ffb800"/>
    <path id="빼기_1" data-name="빼기 1" d="M-472.913-145.949a2.123,2.123,0,0,1-2.12-2.12,2.123,2.123,0,0,1,2.12-2.12,2.123,2.123,0,0,1,2.12,2.12A2.123,2.123,0,0,1-472.913-145.949Zm0-3.181a1.061,1.061,0,0,0-1.06,1.06,1.061,1.061,0,0,0,1.06,1.06,1.061,1.061,0,0,0,1.06-1.06A1.061,1.061,0,0,0-472.913-149.13Z" transform="translate(946.067 308.381)" fill="#00a3ff"/>
    <path id="빼기_2" data-name="빼기 2" d="M-15.116,15.241H-16.47a.531.531,0,0,1-.53-.531V11.53a.531.531,0,0,1,.53-.53h1.354A2.123,2.123,0,0,1-13,13.12,2.124,2.124,0,0,1-15.116,15.241Zm-.411-3.181a.266.266,0,0,0-.266.266v1.59a.265.265,0,0,0,.266.265h.265a1.061,1.061,0,0,0,1.06-1.06,1.061,1.061,0,0,0-1.06-1.06Z" transform="translate(485.501 150.19)" fill="#04a3fb"/>
  </g>
</svg>
